<?xml version="1.0" standalone="no"?>
<!DOCTYPE svg PUBLIC "-//W3C//DTD SVG 20010904//EN"
 "http://www.w3.org/TR/2001/REC-SVG-20010904/DTD/svg10.dtd">
<svg version="1.0" xmlns="http://www.w3.org/2000/svg"
 width="600.000000pt" height="600.000000pt" viewBox="0 0 600.000000 600.000000"
 preserveAspectRatio="xMidYMid meet">
<metadata>
Created by potrace 1.11, written by Peter Selinger 2001-2013
</metadata>
<g transform="translate(0.000000,600.000000) scale(0.100000,-0.100000)"
fill="#000000" stroke="none">
<path d="M820 5381 c0 -3 -21 -5 -47 -4 -59 2 -143 -20 -205 -54 -57 -31 -137
-113 -166 -169 -55 -107 -52 -16 -52 -1708 0 -1508 1 -1563 19 -1614 28 -77
45 -112 53 -112 5 0 8 -7 8 -15 0 -8 5 -15 11 -15 5 0 7 -5 4 -10 -3 -6 1 -10
10 -10 11 0 15 -5 11 -16 -3 -8 -2 -13 3 -9 14 8 43 -25 37 -41 -3 -8 -1 -14
3 -14 9 0 37 -95 35 -117 -1 -7 2 -11 6 -8 10 6 32 -73 24 -87 -4 -7 -3 -8 4
-4 8 5 12 -1 13 -16 0 -13 2 -32 5 -43 10 -52 1 -122 -22 -167 -23 -44 -16
-44 22 -2 55 59 68 96 69 201 0 50 -3 89 -8 86 -6 -3 -11 41 -5 50 1 1 -4 12
-11 25 -9 17 -9 22 1 22 9 0 9 3 -2 10 -25 16 20 12 53 -5 16 -8 25 -9 21 -3
-5 8 -1 9 12 3 10 -4 57 -7 104 -7 55 0 87 -4 92 -11 6 -9 8 -9 8 0 0 16 102
15 112 -1 6 -8 8 -7 8 2 0 7 13 12 31 12 21 0 28 -4 23 -12 -6 -10 -4 -10 7
-1 17 17 51 17 68 0 11 -9 12 -9 7 0 -5 9 9 12 55 12 51 -1 62 -4 66 -20 3
-10 9 -16 14 -13 5 3 9 -2 9 -10 0 -9 5 -16 10 -16 6 0 10 -7 10 -15 0 -8 5
-15 10 -15 6 0 15 -10 20 -22 12 -28 31 -57 48 -76 7 -7 10 -18 6 -23 -3 -5
-1 -8 4 -7 5 2 29 -17 54 -42 49 -48 65 -60 115 -86 18 -9 31 -20 28 -24 -3
-4 5 -8 18 -8 12 -1 49 -7 82 -15 37 -9 93 -14 145 -11 108 4 122 6 138 22 8
7 18 10 23 7 5 -4 9 -1 9 4 0 6 4 11 10 11 30 0 180 136 180 163 0 5 5 5 12 1
7 -4 8 -3 4 4 -7 12 17 56 25 47 3 -2 5 4 6 13 2 32 31 96 49 110 17 13 17 14
2 9 -10 -4 -18 -2 -18 3 0 13 67 13 74 1 4 -5 1 -12 -4 -14 -6 -3 -5 -4 2 -3
7 2 12 8 11 14 -2 8 29 11 92 10 52 0 95 -4 95 -9 0 -5 5 -9 11 -9 5 0 7 5 4
10 -4 6 5 10 20 10 14 0 24 -4 21 -8 -3 -5 1 -9 9 -9 8 0 12 4 9 9 -3 4 11 8
30 8 l36 0 1 -107 c0 -116 0 -301 -1 -319 0 -9 -96 -12 -360 -12 -345 0 -361
-1 -403 -21 -55 -27 -91 -64 -114 -121 -31 -75 -17 -169 32 -222 14 -15 25
-32 25 -38 0 -6 4 -8 10 -5 5 3 10 1 10 -5 0 -6 4 -8 10 -5 5 3 10 2 10 -4 0
-8 69 -25 86 -21 4 1 11 -4 15 -12 7 -10 9 -10 9 2 0 13 1 13 10 0 5 -8 10
-10 10 -4 0 12 29 12 48 0 6 -4 12 -3 12 2 0 10 30 9 47 -1 6 -4 14 -1 16 5 4
8 6 7 6 -4 1 -22 14 -29 31 -16 12 8 12 9 -2 4 -11 -3 -18 0 -18 7 0 7 11 12
26 12 18 0 24 -4 21 -16 -2 -9 1 -16 8 -16 7 0 11 9 9 21 -3 12 -1 15 2 8 5
-10 9 -10 21 0 14 11 15 10 8 -12 -7 -24 -7 -24 8 -5 20 26 39 26 55 0 9 -13
12 -14 8 -3 -6 19 27 31 43 15 6 -6 11 -7 11 -2 0 20 48 13 59 -9 7 -11 9 -13
7 -4 -3 10 -1 20 4 23 6 4 10 2 10 -3 0 -6 7 -12 14 -15 10 -4 13 -1 10 8 -6
15 27 16 39 0 4 -6 10 -5 16 3 11 19 15 19 34 3 10 -7 17 -10 17 -5 0 5 23 9
50 9 32 0 50 -4 50 -12 0 -17 17 -25 26 -12 4 8 3 9 -4 5 -7 -4 -12 -1 -12 7
0 14 27 16 48 3 6 -4 12 -3 12 1 0 13 73 8 77 -4 5 -13 -15 -12 -37 2 -13 7
-13 6 -2 -7 17 -21 43 -17 53 8 4 10 8 13 8 5 1 -10 4 -11 15 -2 11 9 16 9 21
0 6 -8 10 -7 16 2 7 11 9 9 9 -6 1 -17 2 -17 10 -5 10 18 62 19 68 2 2 -7 -5
-9 -18 -7 -11 2 -18 0 -15 -5 9 -14 38 -4 46 16 4 10 8 13 8 5 1 -10 4 -11 15
-2 11 9 16 9 21 0 6 -8 10 -7 16 2 7 11 9 9 9 -6 0 -16 2 -17 9 -6 11 17 81
21 81 4 0 -17 17 -25 26 -12 4 8 3 9 -4 5 -7 -4 -12 -1 -12 6 0 8 9 14 19 14
11 0 17 -4 15 -8 -3 -4 -1 -8 5 -8 5 0 12 4 15 8 6 9 78 8 95 -2 6 -4 11 -4
11 1 0 19 48 10 59 -11 7 -11 9 -13 7 -4 -3 10 -1 20 4 23 6 4 10 2 10 -3 0
-6 7 -12 14 -15 10 -4 13 -1 10 8 -6 15 27 16 39 0 4 -7 10 -7 15 0 8 12 22
13 40 2 6 -5 12 -5 12 0 0 4 23 8 50 8 32 0 50 -4 50 -12 0 -17 17 -25 26 -12
4 8 3 9 -4 5 -7 -4 -12 -1 -12 6 0 8 9 14 19 14 11 0 17 -4 15 -8 -3 -4 -1 -8
5 -8 5 0 12 4 15 8 9 14 79 8 84 -8 4 -12 3 -13 -10 -2 -13 10 -17 10 -21 -1
-3 -9 2 -13 16 -12 11 1 24 10 28 21 4 10 8 13 8 5 1 -10 4 -11 15 -2 11 9 16
9 21 0 6 -8 10 -7 17 2 7 10 8 8 5 -9 -3 -12 -1 -20 4 -16 5 3 9 11 9 19 0 8
9 12 25 11 13 -2 22 1 19 5 -5 9 17 13 45 10 7 -2 10 2 7 7 -6 10 21 27 37 24
4 -1 7 5 7 14 0 10 6 14 14 11 10 -4 13 -1 10 8 -8 20 6 41 16 25 5 -9 8 -5 9
11 0 13 3 53 6 89 8 77 -8 122 -59 175 -32 33 -65 51 -111 61 -11 3 -179 5
-372 6 l-353 1 2 204 c1 133 6 203 13 203 5 0 4 4 -4 9 -10 7 -10 10 -1 16 7
4 16 1 21 -6 6 -10 9 -11 9 -1 0 6 11 12 25 12 14 0 25 -4 25 -9 0 -5 7 -12
16 -15 14 -5 15 -4 4 9 -11 13 -9 15 14 15 14 0 26 -4 26 -10 0 -5 5 -10 11
-10 5 0 8 4 4 10 -3 5 16 9 49 9 46 -1 54 -4 50 -18 -5 -15 -5 -15 5 1 9 14
34 16 182 16 99 0 165 -4 158 -9 -10 -6 -10 -9 -2 -9 6 0 15 5 18 10 8 13 72
13 79 1 4 -5 1 -12 -4 -14 -6 -3 -5 -4 2 -3 7 2 12 9 11 15 -2 7 12 11 35 11
27 0 33 -3 22 -10 -9 -6 -10 -10 -3 -10 6 0 15 5 18 10 8 13 72 13 79 1 4 -5
1 -12 -4 -14 -6 -3 -5 -4 2 -3 7 2 12 9 11 15 -4 17 64 14 71 -4 3 -8 11 -15
18 -14 10 0 10 2 1 6 -26 10 -12 23 25 23 27 0 33 -3 22 -10 -9 -6 -10 -10 -3
-10 6 0 15 5 18 10 4 6 27 10 51 9 36 -2 44 -6 46 -23 2 -40 8 -57 44 -132 31
-63 96 -133 155 -165 24 -13 46 -26 49 -29 3 -3 10 -5 15 -5 6 -1 30 -7 55
-14 27 -8 80 -13 130 -11 120 3 130 4 130 13 0 4 8 7 18 7 9 0 39 11 65 25 26
14 52 23 58 20 5 -4 8 -1 7 7 -2 8 6 13 19 12 12 0 20 3 17 8 -7 11 42 59 50
50 3 -3 6 0 6 7 0 7 13 30 29 50 15 20 31 46 35 59 4 12 12 22 17 22 5 0 8 3
7 7 -3 17 16 69 31 81 12 11 13 12 1 6 -13 -7 -13 -6 -1 10 11 13 16 14 22 4
6 -9 10 -8 15 5 5 14 9 15 20 6 8 -7 17 -9 21 -5 3 3 1 6 -6 6 -7 0 -10 4 -6
10 3 5 12 7 21 3 9 -3 14 0 12 7 -2 7 3 15 11 18 8 2 11 0 7 -6 -4 -6 2 -8 15
-5 14 4 17 8 8 13 -8 6 -5 11 10 19 12 7 27 9 33 5 7 -4 8 -3 4 5 -5 7 2 21
16 35 30 29 54 59 68 85 6 12 15 19 20 16 6 -3 7 0 4 8 -2 7 1 27 8 43 14 33
15 40 17 72 1 15 5 21 13 16 7 -5 8 -3 3 7 -5 7 -9 33 -10 56 -1 35 2 43 15
38 13 -4 13 -4 0 7 -17 14 -19 27 -8 44 4 6 4 14 1 18 -11 10 -11 46 0 46 5 0
4 7 -3 15 -10 12 -10 15 1 15 11 0 11 2 -1 10 -13 9 -13 10 0 10 9 0 11 3 5 8
-6 4 -10 20 -10 35 1 26 7 31 70 54 39 14 78 26 87 26 9 1 14 5 12 9 -8 13 21
9 36 -4 12 -11 12 -10 2 3 -9 12 -6 18 18 32 43 26 57 85 33 135 -19 40 -69
71 -115 72 -16 0 -28 3 -28 8 0 4 -19 8 -41 10 -60 4 -98 34 -67 53 8 6 9 9 1
9 -12 0 -12 17 0 37 4 6 3 15 -3 18 -8 5 -8 11 0 20 8 9 8 15 0 20 -6 4 -7 12
0 24 6 12 5 22 -2 29 -9 9 -9 12 2 12 11 0 11 3 2 12 -8 8 -8 17 -1 31 6 11 7
17 2 14 -5 -4 -10 0 -10 8 0 8 5 12 10 8 5 -3 4 3 -1 14 -7 12 -7 24 0 37 6
11 6 16 1 13 -5 -3 -10 0 -10 8 0 8 5 11 10 8 6 -4 7 -1 2 6 -4 7 -9 37 -10
67 -2 49 -1 53 14 42 14 -12 14 -11 3 4 -16 20 -24 70 -10 62 6 -4 5 3 -1 15
-9 16 -9 21 1 21 10 0 9 3 -1 9 -12 8 -12 12 -2 25 8 9 9 16 5 16 -11 0 -11
121 -1 137 4 7 3 14 -3 18 -6 4 -7 12 0 24 6 12 5 22 -2 29 -9 9 -9 12 2 12
11 0 11 3 2 12 -8 8 -8 17 -1 31 6 11 7 17 2 14 -5 -4 -10 0 -10 8 0 8 5 12
10 8 5 -3 4 3 -1 14 -7 12 -7 24 0 37 6 11 6 16 1 13 -5 -3 -10 0 -10 8 0 8 5
11 10 8 6 -4 7 -1 2 6 -4 7 -9 37 -10 67 -2 49 -1 53 14 42 14 -12 14 -11 3 4
-16 20 -24 70 -10 62 6 -4 5 3 -1 15 -9 16 -9 21 1 21 10 0 9 3 -1 9 -12 8
-12 12 -2 25 8 9 9 16 5 16 -11 0 -11 121 -1 137 4 7 3 14 -3 18 -6 4 -7 12 0
24 6 12 5 22 -2 29 -9 9 -9 12 2 12 11 0 11 3 2 12 -8 8 -8 17 -1 31 6 11 7
17 2 14 -5 -4 -10 0 -10 8 0 8 5 12 10 8 5 -3 4 3 -1 14 -7 12 -7 24 0 37 6
11 6 16 1 13 -5 -3 -10 0 -10 8 0 8 5 11 10 8 6 -4 7 -1 2 6 -4 7 -9 37 -10
67 -2 49 -1 53 14 42 14 -12 14 -11 3 4 -16 20 -24 70 -10 62 6 -4 5 3 -1 15
-9 16 -9 21 1 21 10 0 9 3 -1 9 -12 8 -12 12 -2 25 8 9 9 16 5 16 -11 0 -11
121 -1 137 4 7 3 14 -3 18 -6 4 -7 12 0 24 6 12 5 22 -2 29 -9 9 -9 12 1 12
11 0 11 3 1 15 -10 12 -10 15 1 15 12 0 12 2 1 9 -17 11 -17 21 0 32 8 6 9 9
1 9 -12 0 -12 17 0 38 5 6 4 12 -1 12 -10 0 -9 51 2 68 3 6 2 14 -4 17 -8 5
-8 11 -1 19 6 7 8 16 4 20 -4 4 -8 21 -9 39 -4 118 -77 247 -179 317 -49 34
-127 67 -170 71 -17 2 -35 7 -40 11 -6 4 -16 4 -22 0 -6 -4 -64 -5 -128 -2
-64 3 -118 3 -120 0 -2 -3 -56 -3 -120 0 -64 3 -118 3 -120 0 -2 -3 -56 -3
-120 0 -64 3 -118 3 -120 0 -2 -3 -154 -3 -339 0 -185 3 -336 3 -336 0 0 -3
-63 -3 -141 0 -78 3 -142 3 -144 0 -2 -3 -56 -3 -120 0 -64 3 -118 3 -120 0
-2 -3 -56 -3 -120 0 -64 3 -118 3 -120 0 -2 -3 -56 -3 -120 0 -64 3 -118 3
-120 0 -2 -3 -56 -3 -120 0 -64 3 -118 3 -120 0 -2 -3 -154 -3 -339 0 -185 3
-336 3 -336 0 0 -3 -63 -3 -141 0 -78 3 -142 3 -144 0 -2 -3 -56 -3 -120 0
-64 3 -118 3 -120 0 -2 -3 -56 -3 -120 0 -64 3 -118 3 -120 0 -2 -3 -56 -3
-120 0 -64 3 -119 2 -121 -1 -2 -4 -20 -3 -39 1 -19 4 -35 5 -35 1z m936
-3869 c-5 -15 -5 -15 8 1 14 18 61 23 71 7 3 -5 12 -10 18 -10 7 0 6 4 -3 10
-12 8 -9 10 13 10 19 0 27 -5 28 -17 1 -17 2 -17 6 0 3 10 14 17 29 17 22 0
24 -2 13 -22 -7 -13 -17 -27 -23 -33 -11 -11 -48 -28 -55 -25 -2 1 -7 -4 -11
-11 -11 -17 -99 -15 -132 3 -15 8 -25 18 -21 21 3 4 -1 7 -11 7 -12 0 -15 6
-12 24 3 19 1 23 -14 19 -10 -3 -20 -1 -24 5 -3 5 22 9 60 10 57 0 65 -2 60
-16z m3154 14 c0 -7 -60 -12 -70 -6 -6 4 7 7 30 8 22 1 40 0 40 -2z"/>
<path d="M1690 1506 c0 -2 7 -7 16 -10 8 -3 12 -2 9 4 -6 10 -25 14 -25 6z"/>
<path d="M1775 1500 c-3 -5 -1 -10 4 -10 6 0 11 5 11 10 0 6 -2 10 -4 10 -3 0
-8 -4 -11 -10z"/>
<path d="M1830 1480 c0 -5 5 -10 11 -10 5 0 7 5 4 10 -3 6 -8 10 -11 10 -2 0
-4 -4 -4 -10z"/>
<path d="M1775 1459 c-3 -4 2 -6 10 -5 21 3 28 13 10 13 -9 0 -18 -4 -20 -8z"/>
<path d="M5670 4656 c0 -2 8 -10 18 -17 15 -13 16 -12 3 4 -13 16 -21 21 -21
13z"/>
<path d="M5755 3671 c-3 -5 -2 -12 3 -15 5 -3 9 1 9 9 0 17 -3 19 -12 6z"/>
<path d="M5673 2605 c0 -8 4 -12 9 -9 5 3 6 10 3 15 -9 13 -12 11 -12 -6z"/>
<path d="M5700 2580 c-12 -7 -10 -9 7 -7 12 0 19 5 17 9 -6 10 -6 10 -24 -2z"/>
<path d="M5675 2180 c3 -5 8 -10 11 -10 2 0 4 5 4 10 0 6 -5 10 -11 10 -5 0
-7 -4 -4 -10z"/>
<path d="M5596 1567 c3 -10 9 -15 12 -12 3 3 0 11 -7 18 -10 9 -11 8 -5 -6z"/>
<path d="M5410 1541 c0 -6 4 -13 10 -16 6 -3 7 1 4 9 -7 18 -14 21 -14 7z"/>
<path d="M661 1524 c0 -11 3 -14 6 -6 3 7 2 16 -1 19 -3 4 -6 -2 -5 -13z"/>
<path d="M755 1510 c-3 -6 1 -7 9 -4 18 7 21 14 7 14 -6 0 -13 -4 -16 -10z"/>
<path d="M1228 1508 c-7 -17 15 -19 29 -3 4 4 3 5 -4 2 -6 -4 -13 -2 -15 5 -3
8 -6 6 -10 -4z"/>
<path d="M1273 1503 c0 -7 4 -13 8 -13 4 0 9 6 12 13 3 8 0 14 -7 14 -7 0 -13
-6 -13 -14z"/>
<path d="M3296 1503 c-6 -14 -5 -15 5 -6 7 7 10 15 7 18 -3 3 -9 -2 -12 -12z"/>
<path d="M3571 1513 c-1 -17 16 -25 25 -12 4 7 3 9 -4 5 -5 -3 -13 0 -15 6 -4
9 -6 10 -6 1z"/>
<path d="M3671 1517 c2 -1 11 -8 21 -15 12 -10 18 -10 24 -1 4 7 3 9 -4 5 -6
-3 -13 -2 -17 4 -3 5 -11 10 -17 10 -6 0 -9 -1 -7 -3z"/>
<path d="M795 1500 c3 -5 8 -10 11 -10 2 0 4 5 4 10 0 6 -5 10 -11 10 -5 0 -7
-4 -4 -10z"/>
<path d="M876 1493 c-6 -14 -5 -15 5 -6 7 7 10 15 7 18 -3 3 -9 -2 -12 -12z"/>
<path d="M936 1502 c-3 -4 4 -9 15 -9 23 -2 25 3 4 10 -8 4 -16 3 -19 -1z"/>
<path d="M995 1500 c-3 -5 -1 -10 4 -10 6 0 11 5 11 10 0 6 -2 10 -4 10 -3 0
-8 -4 -11 -10z"/>
<path d="M1056 1502 c-3 -4 4 -9 15 -9 23 -2 25 3 4 10 -8 4 -16 3 -19 -1z"/>
<path d="M1115 1500 c-3 -5 -1 -10 4 -10 6 0 11 5 11 10 0 6 -2 10 -4 10 -3 0
-8 -4 -11 -10z"/>
<path d="M2475 1500 c-3 -6 1 -7 9 -4 18 7 21 14 7 14 -6 0 -13 -4 -16 -10z"/>
<path d="M2540 1505 c0 -7 30 -13 34 -7 3 4 -4 9 -15 9 -10 1 -19 0 -19 -2z"/>
<path d="M2616 1502 c-3 -4 4 -9 15 -9 23 -2 25 3 4 10 -8 4 -16 3 -19 -1z"/>
<path d="M2675 1500 c-3 -5 -1 -10 4 -10 6 0 11 5 11 10 0 6 -2 10 -4 10 -3 0
-8 -4 -11 -10z"/>
<path d="M3755 1500 c-3 -5 -1 -10 4 -10 6 0 11 5 11 10 0 6 -2 10 -4 10 -3 0
-8 -4 -11 -10z"/>
<path d="M3816 1502 c-3 -5 1 -9 9 -9 8 0 12 4 9 9 -3 4 -7 8 -9 8 -2 0 -6 -4
-9 -8z"/>
<path d="M3886 1502 c-3 -5 1 -9 9 -9 8 0 12 4 9 9 -3 4 -7 8 -9 8 -2 0 -6 -4
-9 -8z"/>
<path d="M4140 1506 c0 -2 11 -6 25 -8 13 -3 22 -1 19 3 -5 9 -44 13 -44 5z"/>
<path d="M5314 1488 c-19 -23 -19 -23 2 -5 11 9 24 14 29 10 4 -5 5 -2 1 5 -9
16 -10 16 -32 -10z"/>
<path d="M2326 1458 c3 -5 10 -6 15 -3 13 9 11 12 -6 12 -8 0 -12 -4 -9 -9z"/>
<path d="M3550 1440 c0 -5 5 -10 11 -10 5 0 7 5 4 10 -3 6 -8 10 -11 10 -2 0
-4 -4 -4 -10z"/>
<path d="M5295 1440 c3 -5 8 -10 11 -10 2 0 4 5 4 10 0 6 -5 10 -11 10 -5 0
-7 -4 -4 -10z"/>
<path d="M4189 763 c-13 -16 -12 -17 4 -4 16 13 21 21 13 21 -2 0 -10 -8 -17
-17z"/>
<path d="M4234 729 c-3 -6 -2 -15 3 -20 5 -5 9 -1 9 11 0 23 -2 24 -12 9z"/>
<path d="M2615 629 c-4 -6 -5 -12 -2 -15 2 -3 7 2 10 11 7 17 1 20 -8 4z"/>
<path d="M3320 629 c0 -5 -4 -8 -9 -4 -5 3 -12 1 -15 -4 -4 -5 2 -8 11 -7 15
3 33 26 19 26 -3 0 -6 -5 -6 -11z"/>
<path d="M3575 629 c-4 -6 -5 -12 -2 -15 2 -3 7 2 10 11 7 17 1 20 -8 4z"/>
<path d="M3800 631 c0 -7 -5 -9 -12 -5 -7 5 -8 3 -3 -5 5 -9 10 -10 18 -2 6 6
8 14 4 18 -4 3 -7 1 -7 -6z"/>
<path d="M2138 618 c-9 -5 -6 -7 9 -5 12 2 25 6 28 8 8 9 -23 6 -37 -3z"/>
<path d="M2335 620 c-3 -5 -1 -10 4 -10 6 0 11 5 11 10 0 6 -2 10 -4 10 -3 0
-8 -4 -11 -10z"/>
<path d="M2400 626 c0 -2 7 -7 16 -10 8 -3 12 -2 9 4 -6 10 -25 14 -25 6z"/>
<path d="M2446 622 c-3 -5 1 -9 9 -9 8 0 12 4 9 9 -3 4 -7 8 -9 8 -2 0 -6 -4
-9 -8z"/>
<path d="M2656 621 c-4 -5 3 -7 14 -4 23 6 26 13 6 13 -8 0 -17 -4 -20 -9z"/>
<path d="M2700 626 c0 -2 9 -6 20 -9 11 -3 18 -1 14 4 -5 9 -34 13 -34 5z"/>
<path d="M2820 620 c-12 -7 -10 -9 7 -7 12 0 19 5 17 9 -6 10 -6 10 -24 -2z"/>
<path d="M2935 620 c-3 -5 -1 -10 4 -10 6 0 11 5 11 10 0 6 -2 10 -4 10 -3 0
-8 -4 -11 -10z"/>
<path d="M3095 620 c-3 -5 -1 -10 4 -10 6 0 11 5 11 10 0 6 -2 10 -4 10 -3 0
-8 -4 -11 -10z"/>
<path d="M3184 622 c4 -3 14 -7 22 -8 9 -1 13 0 10 4 -4 3 -14 7 -22 8 -9 1
-13 0 -10 -4z"/>
<path d="M3347 623 c-3 -5 5 -8 18 -8 13 0 21 3 18 8 -2 4 -10 7 -18 7 -8 0
-16 -3 -18 -7z"/>
<path d="M3406 622 c-3 -5 1 -9 9 -9 8 0 12 4 9 9 -3 4 -7 8 -9 8 -2 0 -6 -4
-9 -8z"/>
<path d="M3616 621 c-4 -5 3 -7 14 -4 23 6 26 13 6 13 -8 0 -17 -4 -20 -9z"/>
<path d="M3660 626 c0 -2 9 -6 20 -9 11 -3 18 -1 14 4 -5 9 -34 13 -34 5z"/>
<path d="M3895 620 c-3 -5 -1 -10 4 -10 6 0 11 5 11 10 0 6 -2 10 -4 10 -3 0
-8 -4 -11 -10z"/>
</g>
</svg>
