<?xml version="1.0" standalone="no"?>
<!DOCTYPE svg PUBLIC "-//W3C//DTD SVG 20010904//EN"
 "http://www.w3.org/TR/2001/REC-SVG-20010904/DTD/svg10.dtd">
<svg version="1.0" xmlns="http://www.w3.org/2000/svg"
 width="600.000000pt" height="600.000000pt" viewBox="0 0 600.000000 600.000000"
 preserveAspectRatio="xMidYMid meet">
<metadata>
Created by potrace 1.11, written by Peter Selinger 2001-2013
</metadata>
<g transform="translate(0.000000,600.000000) scale(0.100000,-0.100000)"
fill="#000000" stroke="none">
<path d="M1107 4970 c-114 -20 -214 -98 -265 -208 l-27 -57 0 -1330 0 -1330
32 -65 c18 -36 45 -77 60 -92 l28 -27 0 102 c0 86 3 108 22 142 25 46 85 106
128 128 52 26 138 37 203 27 178 -29 298 -115 463 -332 140 -184 131 -178 265
-178 90 0 113 3 118 15 4 12 32 15 165 15 138 0 160 -2 155 -15 -5 -13 17 -15
165 -15 l171 0 0 -165 0 -165 -282 0 c-298 0 -340 -5 -394 -45 -84 -63 -90
-210 -12 -282 29 -27 89 -53 123 -53 14 0 25 -4 25 -10 0 -7 268 -10 785 -10
753 0 787 1 823 19 20 10 47 30 59 43 50 53 68 153 39 221 -17 43 -76 93 -123
106 -23 7 -156 11 -325 11 l-288 0 0 104 c0 56 3 131 6 165 l7 61 458 0 c415
0 459 2 459 16 0 14 23 16 223 13 122 -2 232 0 245 5 27 9 52 54 52 94 0 16
-16 82 -36 148 -47 159 -54 249 -24 328 31 82 95 143 206 199 49 25 103 59
121 76 44 42 73 47 162 27 42 -9 84 -16 94 -16 17 0 18 48 15 1028 l-3 1027
-32 67 c-40 84 -97 141 -181 181 l-67 32 -1885 1 c-1037 1 -1907 -2 -1933 -6z
m1507 -766 c38 -38 36 -95 -3 -135 l-29 -29 -552 0 c-400 0 -557 3 -573 12
-35 18 -46 40 -47 86 0 32 6 49 25 67 l24 25 564 0 564 0 27 -26z m-623 -313
c21 -22 29 -39 29 -66 0 -27 -8 -44 -29 -66 l-29 -29 -250 0 -249 0 -27 26
c-37 38 -37 105 0 139 l27 25 249 0 250 0 29 -29z m620 -370 c50 -51 37 -130
-26 -157 -51 -21 -1069 -21 -1120 0 -41 17 -55 42 -55 94 0 33 6 45 31 66 l31
26 555 0 555 0 29 -29z m-615 -314 c43 -50 23 -135 -37 -156 -20 -7 -116 -11
-251 -11 -232 0 -264 6 -288 49 -20 39 -12 91 20 122 l29 30 252 -3 251 -3 24
-28z"/>
<path d="M5106 2334 c-80 -27 -110 -29 -146 -9 -39 22 -59 18 -96 -19 -30 -30
-34 -40 -34 -87 1 -37 12 -82 36 -144 53 -136 67 -192 61 -258 -5 -55 -4 -57
17 -51 47 13 133 74 172 122 69 84 86 142 92 320 5 176 13 167 -102 126z"/>
<path d="M1151 2119 c-45 -18 -82 -51 -103 -92 -18 -36 -20 -53 -15 -127 3
-47 9 -93 13 -103 13 -35 53 -41 317 -45 l258 -4 -22 39 c-96 170 -211 301
-292 332 -34 13 -123 13 -156 0z"/>
</g>
</svg>
